<?xml version="1.0" encoding="UTF-8" standalone="no"?>
<!DOCTYPE svg PUBLIC "-//W3C//DTD SVG 1.1//EN" "http://www.w3.org/Graphics/SVG/1.1/DTD/svg11.dtd">
<svg width="100%" height="100%" viewBox="0 0 923 271" version="1.1" xmlns="http://www.w3.org/2000/svg" xmlns:xlink="http://www.w3.org/1999/xlink" xml:space="preserve" xmlns:serif="http://www.serif.com/" style="fill-rule:evenodd;clip-rule:evenodd;stroke-linejoin:round;stroke-miterlimit:2;">
    <g transform="matrix(0.87527,0,0,0.804499,38.1809,-261.51)">
        <rect id="Artboard1" x="-43.622" y="325.059" width="1054.06" height="335.863" style="fill:none;"/>
        <g id="Artboard11" serif:id="Artboard1">
            <g id="_758680" serif:id="758680" transform="matrix(1.18569,0,0,1.29,483.698,469.291)">
                <g>
                    <g transform="matrix(1,0,0,1,-438,-106)">
                        <path d="M843.999,31.11C847.584,34.708 851.817,36.506 856.699,36.506C861.733,36.506 866.042,34.708 869.627,31.11C873.212,27.514 875.004,23.266 875.004,18.368C875.004,13.47 873.212,9.184 869.627,5.51C866.042,1.837 861.733,0 856.699,0C851.817,0 847.584,1.837 843.999,5.51C840.414,9.184 838.622,13.47 838.622,18.368C838.622,23.266 840.414,27.514 843.999,31.11Z" style="fill:rgb(33,32,103);fill-rule:nonzero;"/>
                    </g>
                    <g transform="matrix(1,0,0,1,-438,-106)">
                        <path d="M457.976,78.074C457.976,78.45 457.671,78.755 457.295,78.755L432.119,78.755L432.119,126.511C432.119,130.491 433.111,133.399 435.094,135.236C437.077,137.073 439.975,138.106 443.789,138.336C447.278,138.546 451.533,138.532 456.554,138.293L456.683,138.287L456.915,138.276L457.259,138.258C457.649,138.238 457.976,138.549 457.976,138.939L457.976,164.475C457.976,164.822 457.715,165.113 457.371,165.151C457.203,165.169 457.034,165.188 456.909,165.201C437.185,167.311 423.24,165.359 415.072,159.344C406.758,153.221 402.601,142.277 402.601,126.511L402.601,78.755L383.375,78.755C382.999,78.755 382.694,78.45 382.694,78.074L382.694,50.966C382.694,50.59 382.999,50.285 383.375,50.285L402.601,50.285L402.601,31.323C402.601,30.784 402.92,30.295 403.413,30.077L431.163,17.822C431.613,17.624 432.119,17.953 432.119,18.445L432.119,50.285L457.295,50.285C457.671,50.285 457.976,50.59 457.976,50.966L457.976,78.074Z" style="fill:rgb(33,32,103);fill-rule:nonzero;"/>
                    </g>
                    <g transform="matrix(1,0,0,1,-438,-106)">
                        <path d="M511.501,70.029C514.247,62.682 518.785,57.171 525.116,53.498C530.909,50.136 537.31,48.312 544.317,48.027C544.656,48.013 545.175,48.003 545.594,47.997C545.973,47.991 546.282,48.297 546.282,48.675L546.282,79.83C546.282,80.48 545.717,80.981 545.069,80.922C536.557,80.15 528.914,82.029 522.141,86.56C515.048,91.305 511.501,99.188 511.501,110.208L511.501,164.401C511.501,164.777 511.196,165.082 510.82,165.082L482.664,165.082C482.288,165.082 481.983,164.777 481.983,164.401L481.983,50.964C481.983,50.588 482.288,50.283 482.664,50.283L510.82,50.283C511.196,50.283 511.501,50.588 511.501,50.964L511.501,70.029Z" style="fill:rgb(33,32,103);fill-rule:nonzero;"/>
                    </g>
                    <g transform="matrix(1,0,0,1,-438,-106)">
                        <path d="M651.074,50.282C650.698,50.282 650.393,50.586 650.393,50.963L650.393,63.828C641.545,52.654 629.113,47.067 613.095,47.067C597.84,47.067 584.76,52.922 573.852,64.631C562.945,76.341 557.492,90.691 557.492,107.681C557.492,124.671 562.945,139.021 573.852,150.731C584.76,162.44 597.84,168.295 613.095,168.295C629.113,168.295 641.545,162.708 650.393,151.534L650.393,164.4C650.393,164.776 650.698,165.08 651.074,165.08L679.23,165.08C679.606,165.08 679.911,164.776 679.911,164.4L679.911,50.963C679.911,50.586 679.606,50.282 679.23,50.282L651.074,50.282ZM595.931,131.101C601.881,137.071 609.432,140.056 618.585,140.056C627.738,140.056 635.327,137.033 641.352,130.987C647.378,124.941 650.391,117.173 650.391,107.682C650.391,98.192 647.378,90.424 641.352,84.378C635.327,78.332 627.738,75.309 618.585,75.309C609.432,75.309 601.881,78.332 595.931,84.378C589.982,90.424 587.007,98.192 587.007,107.682C587.007,117.173 589.982,124.979 595.931,131.101Z" style="fill:rgb(33,32,103);"/>
                    </g>
                    <g transform="matrix(1,0,0,1,-438,-106)">
                        <path d="M808.117,64.631C797.21,52.922 784.052,47.067 768.645,47.067C752.628,47.067 740.271,52.654 731.576,63.828L731.576,50.963C731.576,50.586 731.271,50.282 730.895,50.282L702.739,50.282C702.363,50.282 702.058,50.586 702.058,50.963L702.058,210.319C702.058,210.695 702.363,211 702.739,211L730.895,211C731.271,211 731.576,210.695 731.576,210.319L731.576,151.534C740.271,162.708 752.628,168.295 768.645,168.295C784.052,168.295 797.21,162.44 808.117,150.731C819.024,139.021 824.477,124.671 824.477,107.681C824.477,90.691 819.024,76.341 808.117,64.631ZM740.498,131.101C746.447,137.071 753.998,140.056 763.151,140.056C772.304,140.056 779.893,137.033 785.919,130.987C791.944,124.941 794.957,117.173 794.957,107.682C794.957,98.192 791.944,90.424 785.919,84.378C779.893,78.332 772.304,75.309 763.151,75.309C753.998,75.309 746.447,78.332 740.498,84.378C734.548,90.424 731.574,98.192 731.574,107.682C731.574,117.173 734.548,124.979 740.498,131.101Z" style="fill:rgb(33,32,103);"/>
                    </g>
                    <g transform="matrix(1,0,0,1,-438,-106)">
                        <path d="M842.738,165.083C842.362,165.083 842.057,164.778 842.057,164.402L842.057,50.965C842.057,50.589 842.362,50.284 842.738,50.284L870.894,50.284C871.27,50.284 871.575,50.589 871.575,50.965L871.575,164.402C871.575,164.778 871.27,165.083 870.894,165.083L842.738,165.083Z" style="fill:rgb(33,32,103);fill-rule:nonzero;"/>
                    </g>
                    <g transform="matrix(1,0,0,1,-438,-106)">
                        <path d="M315.839,90.346C311.796,88.433 309.775,85.946 309.775,82.884C309.775,79.976 311.033,77.68 313.55,75.996C316.067,74.313 319.233,73.471 323.046,73.471C330.359,73.471 335.884,76.331 339.619,82.052C339.88,82.451 340.387,82.612 340.823,82.419L365.727,71.364C366.098,71.199 366.244,70.749 366.037,70.4C365.763,69.936 365.401,69.33 365.161,68.952C360.892,62.218 355.37,57.203 348.446,53.381C340.818,49.172 332.352,47.067 323.046,47.067C310.69,47.067 300.355,50.32 292.041,56.825C283.727,63.33 279.57,72.246 279.57,83.573C279.57,91.073 281.592,97.311 285.634,102.285C289.677,107.26 294.596,110.895 300.393,113.191C306.19,115.487 311.987,117.4 317.784,118.931C323.58,120.462 328.5,122.184 332.543,124.097C336.585,126.01 338.606,128.498 338.606,131.559C338.606,138.141 333.343,141.432 322.818,141.432C312.798,141.432 305.855,137.716 301.988,130.286C301.656,129.647 300.896,129.355 300.238,129.648L275.404,140.689C275.054,140.844 274.901,141.258 275.067,141.603C275.168,141.811 275.274,142.029 275.351,142.184C284.03,159.591 299.852,168.295 322.818,168.295C335.937,168.295 346.882,165.119 355.653,158.766C364.425,152.414 368.811,143.345 368.811,131.559C368.811,123.753 366.789,117.247 362.747,112.043C358.704,106.839 353.785,103.127 347.988,100.908C342.191,98.688 336.394,96.852 330.598,95.397C324.801,93.943 319.881,92.26 315.839,90.346Z" style="fill:rgb(33,32,103);fill-rule:nonzero;"/>
                    </g>
                    <g transform="matrix(1,0,0,1,-438,-106)">
                        <path d="M0,73.493C0,38.848 0,21.526 10.763,10.763C21.526,0 38.848,0 73.493,0L138.507,0C173.152,0 190.474,0 201.237,10.763C212,21.526 212,38.848 212,73.493L212,138.507C212,173.152 212,190.474 201.237,201.237C190.474,212 173.152,212 138.507,212L73.493,212C38.848,212 21.526,212 10.763,201.237C0,190.474 0,173.152 0,138.507L0,73.493Z" style="fill:rgb(73,69,255);fill-rule:nonzero;"/>
                    </g>
                    <g transform="matrix(1,0,0,1,-438,-106)">
                        <path d="M146.28,64.307L74.906,64.307L74.906,100.7L111.3,100.7L111.3,137.093L147.693,137.093L147.693,65.72C147.693,64.939 147.06,64.307 146.28,64.307Z" style="fill:white;"/>
                    </g>
                    <g transform="matrix(1,0,0,1,-327.407,-4.5934)">
                        <rect x="-0.707" y="-0.707" width="1.413" height="1.413" style="fill:white;"/>
                    </g>
                    <g transform="matrix(1,0,0,1,-438,-106)">
                        <path d="M74.906,100.7L109.886,100.7C110.667,100.7 111.3,101.333 111.3,102.113L111.3,137.093L76.32,137.093C75.539,137.093 74.906,136.461 74.906,135.68L74.906,100.7Z" style="fill:rgb(149,147,255);fill-rule:nonzero;"/>
                    </g>
                    <g transform="matrix(1,0,0,1,-438,-106)">
                        <path d="M111.3,137.093L147.693,137.093L112.506,172.28C112.061,172.725 111.3,172.41 111.3,171.781L111.3,137.093Z" style="fill:rgb(149,147,255);fill-rule:nonzero;"/>
                    </g>
                    <g transform="matrix(1,0,0,1,-438,-106)">
                        <path d="M74.906,100.7L40.219,100.7C39.589,100.7 39.274,99.939 39.719,99.494L74.906,64.307L74.906,100.7Z" style="fill:rgb(149,147,255);fill-rule:nonzero;"/>
                    </g>
                </g>
            </g>
            <g id="_202050" serif:id="202050" transform="matrix(1.1425,0,0,1.24301,585.536,605.691)">
                <path d="M-67.34,-3.26C-64.453,-2.64 -62.137,-1.207 -60.39,1.04C-58.637,3.287 -57.76,5.853 -57.76,8.74C-57.76,12.907 -59.217,16.21 -62.13,18.65C-65.037,21.083 -69.093,22.3 -74.3,22.3L-97.52,22.3L-97.52,-27.54L-75.08,-27.54C-70.02,-27.54 -66.057,-26.38 -63.19,-24.06C-60.323,-21.74 -58.89,-18.593 -58.89,-14.62C-58.89,-11.68 -59.66,-9.24 -61.2,-7.3C-62.74,-5.36 -64.787,-4.013 -67.34,-3.26ZM-85.38,-17.81L-85.38,-7.37L-77.43,-7.37C-75.437,-7.37 -73.91,-7.81 -72.85,-8.69C-71.783,-9.563 -71.25,-10.853 -71.25,-12.56C-71.25,-14.26 -71.783,-15.56 -72.85,-16.46C-73.91,-17.36 -75.437,-17.81 -77.43,-17.81L-85.38,-17.81ZM-76.43,12.51C-74.397,12.51 -72.823,12.047 -71.71,11.12C-70.597,10.2 -70.04,8.863 -70.04,7.11C-70.04,5.357 -70.62,3.983 -71.78,2.99C-72.94,1.997 -74.537,1.5 -76.57,1.5L-85.38,1.5L-85.38,12.51L-76.43,12.51ZM-23.39,-17.31L-10.26,-17.31L-35.11,41.12L-48.17,41.12L-39.09,20.95L-55.2,-17.31L-41.64,-17.31L-32.48,7.46L-23.39,-17.31ZM11.89,12.01L16.22,12.01L16.22,22.3L10.05,22.3C5.643,22.3 2.21,21.223 -0.25,19.07C-2.71,16.917 -3.94,13.403 -3.94,8.53L-3.94,-7.23L-8.77,-7.23L-8.77,-17.31L-3.94,-17.31L-3.94,-26.97L8.2,-26.97L8.2,-17.31L16.15,-17.31L16.15,-7.23L8.2,-7.23L8.2,8.67C8.2,9.857 8.483,10.71 9.05,11.23C9.617,11.75 10.563,12.01 11.89,12.01ZM60.31,1.86C60.31,2.993 60.24,4.177 60.1,5.41L32.62,5.41C32.813,7.87 33.607,9.75 35,11.05C36.4,12.35 38.117,13 40.15,13C43.177,13 45.283,11.723 46.47,9.17L59.39,9.17C58.73,11.77 57.537,14.113 55.81,16.2C54.077,18.28 51.91,19.913 49.31,21.1C46.703,22.28 43.793,22.87 40.58,22.87C36.693,22.87 33.237,22.043 30.21,20.39C27.183,18.73 24.817,16.363 23.11,13.29C21.403,10.21 20.55,6.61 20.55,2.49C20.55,-1.623 21.393,-5.22 23.08,-8.3C24.76,-11.373 27.113,-13.74 30.14,-15.4C33.167,-17.053 36.647,-17.88 40.58,-17.88C44.413,-17.88 47.82,-17.077 50.8,-15.47C53.78,-13.857 56.11,-11.56 57.79,-8.58C59.47,-5.6 60.31,-2.12 60.31,1.86ZM32.7,-1.34L47.89,-1.34C47.89,-3.42 47.18,-5.077 45.76,-6.31C44.34,-7.543 42.563,-8.16 40.43,-8.16C38.397,-8.16 36.683,-7.567 35.29,-6.38C33.89,-5.2 33.027,-3.52 32.7,-1.34ZM82.82,22.87C79.367,22.87 76.29,22.28 73.59,21.1C70.89,19.913 68.76,18.29 67.2,16.23C65.64,14.17 64.763,11.863 64.57,9.31L76.57,9.31C76.717,10.683 77.357,11.797 78.49,12.65C79.623,13.503 81.02,13.93 82.68,13.93C84.193,13.93 85.363,13.633 86.19,13.04C87.023,12.447 87.44,11.677 87.44,10.73C87.44,9.597 86.847,8.757 85.66,8.21C84.48,7.663 82.563,7.06 79.91,6.4C77.07,5.74 74.703,5.043 72.81,4.31C70.917,3.57 69.283,2.41 67.91,0.83C66.537,-0.757 65.85,-2.9 65.85,-5.6C65.85,-7.873 66.477,-9.943 67.73,-11.81C68.99,-13.683 70.837,-15.163 73.27,-16.25C75.71,-17.337 78.61,-17.88 81.97,-17.88C86.937,-17.88 90.853,-16.65 93.72,-14.19C96.587,-11.73 98.23,-8.463 98.65,-4.39L87.44,-4.39C87.247,-5.763 86.643,-6.853 85.63,-7.66C84.61,-8.467 83.27,-8.87 81.61,-8.87C80.19,-8.87 79.103,-8.597 78.35,-8.05C77.59,-7.503 77.21,-6.757 77.21,-5.81C77.21,-4.677 77.813,-3.827 79.02,-3.26C80.227,-2.687 82.11,-2.117 84.67,-1.55C87.603,-0.797 89.993,-0.053 91.84,0.68C93.687,1.413 95.307,2.597 96.7,4.23C98.1,5.863 98.823,8.053 98.87,10.8C98.87,13.12 98.22,15.19 96.92,17.01C95.613,18.837 93.743,20.27 91.31,21.31C88.87,22.35 86.04,22.87 82.82,22.87Z" style="fill:rgb(73,69,255);fill-rule:nonzero;"/>
            </g>
        </g>
    </g>
</svg>
